<?xml version="1.0" encoding="utf-8"?>
<!-- Generator: Adobe Illustrator 19.2.1, SVG Export Plug-In . SVG Version: 6.00 Build 0)  -->
<svg version="1.1" id="Layer_1" xmlns="http://www.w3.org/2000/svg" xmlns:xlink="http://www.w3.org/1999/xlink" x="0px" y="0px"
	 viewBox="0 0 470.3 86.8" style="enable-background:new 0 0 470.3 86.8;" xml:space="preserve">
<style type="text/css">
	.st0{fill:#FFFFFF;}
</style>
<g>
	<path class="st0" d="M14.5,53.8v24.1h63V55.6C58.3,42.9,37.1,42.3,14.5,53.8z"/>
	<path class="st0" d="M68.3,7c-1.9,0-3.7,0.2-5.5,0.7C58.7,3,52.7,0,46,0c-6.8,0-13,3.1-17.1,7.9c-2.1-0.6-4.3-1-6.6-1
		C10,7,0,17,0,29.3c0,8.6,4.9,16.1,12,19.8c23.4-11.9,45.5-11.8,65.6,0.4c7.6-3.5,12.9-11.3,12.9-20.2C90.6,17,80.6,7,68.3,7z"/>
</g>
<g>
	<path class="st0" d="M157.3,43c-0.8,0.7-1.8,1.3-2.8,1.9c-1.1,0.6-2.4,1.1-4,1.5c0.2,0.2,0.6,0.6,1.1,1.2c0.5,0.6,1,1.3,1.5,2.1
		l8.7,14.7l6.2,1.3v4.1h-16.6v-4.1l-9.2-18h-6.7v16.6l6.7,1.5v4.1h-21.7v-4.1l5.9-1.5V24.8l-5.9-1.5v-4.1h26.3
		c2.2,0,4.2,0.2,5.9,0.6c1.7,0.4,3.2,1.1,4.6,2c1.7,1.2,3,2.8,4,4.7c1,1.9,1.5,3.9,1.5,5.8c0,2-0.5,3.9-1.4,5.8
		C160.3,40.1,159,41.7,157.3,43z M143.5,42.5c2.6,0,4.7-0.7,6.4-2.2c0.9-0.8,1.7-1.9,2.2-3.2c0.5-1.3,0.8-2.8,0.8-4.3
		c0-1.4-0.3-2.7-0.8-3.8c-0.6-1.1-1.3-2.1-2.2-2.9c-1.5-1.2-3.7-1.8-6.6-1.8h-7.7v18.2H143.5z"/>
	<path class="st0" d="M179.2,51.8c0,3.2,0.5,5.8,1.4,7.9c1.5,3.3,4.1,5,7.7,5c2.1,0,4.2-0.5,6.2-1.4c2-0.9,3.7-2.3,5.2-4.2l3.8,2.9
		c-1.6,2.3-3.8,4.3-6.6,6c-2.8,1.6-6.2,2.5-10.3,2.5c-3.5,0-6.4-0.7-8.9-2.1c-2.5-1.4-4.3-3.4-5.6-6.1c-0.7-1.4-1.2-3.1-1.5-4.8
		s-0.5-3.7-0.5-5.8c0-6.6,1.5-11.6,4.5-15.2c3-3.6,7.3-5.4,12.8-5.4c2.5,0,4.8,0.4,6.9,1.2c2.1,0.8,3.8,1.9,5.2,3.3
		c1.4,1.4,2.5,3.2,3.3,5.3c0.8,2.1,1.2,4.4,1.2,7.1c0,0.5,0,1,0,1.5c0,0.5-0.1,1.3-0.2,2.4H179.2z M187.2,36
		c-4.8,0-7.5,3.8-7.9,11.3h15.4v-1.8c0-3-0.7-5.4-2-7C191.4,36.8,189.6,36,187.2,36z"/>
	<path class="st0" d="M227.4,31.2c2.2,0,4.1,0.3,6,0.8c1.8,0.5,3.4,1.3,4.7,2.2c1.3,1,2.4,2.1,3.1,3.5c0.7,1.4,1.1,2.9,1.1,4.5
		c0,2.1-0.6,3.7-1.7,4.8c-1.1,1.1-2.5,1.6-4.1,1.6c-0.9,0-1.7-0.2-2.3-0.5c-0.6-0.3-1.1-0.7-1.5-1.2c-0.4-0.5-0.7-1-0.8-1.7
		c-0.2-0.6-0.2-1.2-0.2-1.8c0-1.2,0.3-2.2,0.9-3c0.6-0.8,1.5-1.4,2.6-1.8c-0.7-0.8-1.6-1.5-2.9-2c-1.3-0.5-2.8-0.8-4.4-0.8
		c-1.5,0-2.8,0.3-4,0.8c-1.1,0.5-2.1,1.3-2.9,2.5c-0.8,1.1-1.4,2.7-1.8,4.6c-0.4,1.9-0.6,4.2-0.6,7c0,2.5,0.2,4.5,0.5,6
		c0.3,1.5,0.8,2.7,1.3,3.8c0.7,1.4,1.7,2.4,2.9,3.2c1.2,0.8,2.7,1.2,4.5,1.2c0.9,0,1.9-0.1,3-0.4c1.1-0.2,2.1-0.6,3.1-1
		c1-0.4,2-1,2.9-1.7c0.9-0.7,1.7-1.5,2.4-2.5l3.8,2.9c-2.2,3-4.7,5.2-7.6,6.5c-2.9,1.3-6,1.9-9.2,1.9c-3.5,0-6.5-0.7-8.8-2
		c-2.4-1.3-4.3-3.3-5.6-5.9c-0.8-1.5-1.4-3.2-1.9-5.2s-0.7-4-0.7-6.3c0-3,0.4-5.8,1.3-8.2c0.8-2.5,2-4.6,3.6-6.3
		c1.6-1.8,3.5-3.1,5.8-4C221.9,31.6,224.5,31.2,227.4,31.2z"/>
	<path class="st0" d="M246.8,35.8v-3.9h14.3v32.6l5.4,1.3v3.9h-19.7v-3.9l5.4-1.3V37.1L246.8,35.8z M251.5,21.2
		c0-1.5,0.5-2.7,1.4-3.6c0.9-0.9,2.2-1.4,3.8-1.4c1.6,0,2.9,0.5,3.9,1.4c0.9,0.9,1.4,2.2,1.4,3.6c0,1.5-0.5,2.7-1.4,3.6
		c-0.9,0.9-2.2,1.4-3.9,1.4c-1.7,0-3-0.5-3.9-1.4C251.9,23.9,251.5,22.7,251.5,21.2z"/>
	<path class="st0" d="M290.4,78.5v3.9h-21.1v-3.9l5.4-1.3v-40l-5.4-1.3v-3.9h12.2l1.1,5.4c1.5-2.3,3.2-3.9,5.1-4.8
		c1.9-0.9,4-1.3,6.4-1.3c2.4,0,4.6,0.4,6.5,1.1c1.9,0.7,3.5,1.8,4.7,3.4c1.4,1.8,2.5,3.9,3.3,6.4c0.8,2.5,1.2,5.2,1.2,8.1
		c0,3-0.5,5.8-1.4,8.5c-0.9,2.6-2.1,4.9-3.7,6.6c-2.6,3-6.4,4.6-11.3,4.6c-2,0-3.8-0.4-5.4-1.1c-1.6-0.7-3.1-2.1-4.5-4.1v12.6
		L290.4,78.5z M283.5,50.1c0,2.6,0.2,4.8,0.6,6.7c0.4,1.9,1,3.4,1.7,4.6c0.7,1.2,1.6,2.1,2.7,2.7c1.1,0.7,2.4,1,3.9,1
		c1.4,0,2.6-0.3,3.5-0.9c0.9-0.6,1.6-1.4,2.2-2.4c0.7-1.2,1.3-2.8,1.6-4.7c0.4-1.9,0.6-4,0.6-6.2c0-2.4-0.2-4.6-0.6-6.7
		c-0.4-2.1-1-3.7-1.7-5c-0.7-1.2-1.6-2.1-2.6-2.5c-1-0.5-2.2-0.7-3.5-0.7c-2.8,0-4.8,1.1-6.2,3.2c-0.7,1.1-1.2,2.5-1.6,4.4
		C283.7,45.3,283.5,47.5,283.5,50.1z"/>
	<path class="st0" d="M324.3,51.8c0,3.2,0.5,5.8,1.4,7.9c1.5,3.3,4.1,5,7.7,5c2.1,0,4.2-0.5,6.2-1.4c2-0.9,3.7-2.3,5.2-4.2l3.8,2.9
		c-1.6,2.3-3.8,4.3-6.6,6c-2.8,1.6-6.2,2.5-10.3,2.5c-3.5,0-6.4-0.7-8.9-2.1c-2.5-1.4-4.3-3.4-5.6-6.1c-0.7-1.4-1.2-3.1-1.5-4.8
		s-0.5-3.7-0.5-5.8c0-6.6,1.5-11.6,4.5-15.2c3-3.6,7.3-5.4,12.8-5.4c2.5,0,4.8,0.4,6.9,1.2c2.1,0.8,3.8,1.9,5.2,3.3
		c1.4,1.4,2.5,3.2,3.3,5.3c0.8,2.1,1.2,4.4,1.2,7.1c0,0.5,0,1,0,1.5c0,0.5-0.1,1.3-0.2,2.4H324.3z M332.3,36
		c-4.8,0-7.5,3.8-7.9,11.3h15.4v-1.8c0-3-0.7-5.4-2-7C336.6,36.8,334.7,36,332.3,36z"/>
	<path class="st0" d="M353.6,61.5c0-1.9,0.4-3.6,1.3-5.1c0.9-1.5,2.2-2.8,4-3.9c1.8-1.1,4.1-2.1,6.9-2.9c2.8-0.8,6.1-1.5,9.9-2.1
		c-0.2-2.3-0.5-4.1-0.8-5.4c-0.3-1.2-0.7-2.3-1.2-3.3c-0.7-1.1-1.4-1.9-2.3-2.6c-0.9-0.7-2-1-3.3-1c-1,0-1.9,0.2-2.7,0.6
		c-0.8,0.4-1.4,0.9-1.6,1.5c0.7,0.4,1.1,0.9,1.4,1.6c0.3,0.7,0.4,1.3,0.4,1.8c0,1.2-0.5,2.2-1.5,3.1c-1,0.9-2.3,1.4-3.7,1.4
		c-1.5,0-2.7-0.5-3.5-1.4c-0.8-1-1.2-2.2-1.2-3.6c0-1.4,0.4-2.7,1.2-3.9c0.8-1.1,1.8-2.1,3.2-2.8s2.8-1.4,4.4-1.8
		c1.6-0.4,3.2-0.6,4.9-0.6c2.2,0,4.2,0.3,5.9,0.9c1.8,0.6,3.2,1.4,4.2,2.4c3.7,3.3,5.5,8.5,5.5,15.6v9.1c0,2.3,0.2,3.9,0.5,4.8
		c0.3,0.9,1,1.3,2,1.3h3.2v3.2c-4.3,1.4-7.6,2-9.8,2c-0.8,0-1.4-0.1-1.9-0.4c-0.5-0.2-0.9-0.6-1.2-1.2c-0.3-0.6-0.5-1.3-0.6-2.3
		c-0.1-1-0.2-2.2-0.2-3.8h-0.3c-1.5,2.4-3.4,4.3-5.8,5.6s-5,2-7.7,2c-2.9,0-5.3-0.8-6.9-2.4C354.4,66.5,353.6,64.3,353.6,61.5z
		 M367.4,65.3c1,0,2.1-0.3,3.3-0.9c1.2-0.6,2.2-1.6,3.1-2.8c0.5-0.7,1-1.6,1.5-2.8c0.5-1.2,0.7-2.7,0.7-4.4c0-0.6,0-1.2-0.1-1.9
		c0-0.7-0.1-1.3-0.2-2c-2.4,0.5-4.5,1.1-6.1,1.7c-1.6,0.6-2.9,1.2-3.9,1.9c-1,0.7-1.7,1.5-2.1,2.4c-0.4,0.9-0.6,2-0.6,3.1
		c0,2.1,0.5,3.5,1.4,4.4C365.3,64.9,366.3,65.3,367.4,65.3z"/>
	<path class="st0" d="M407.1,66.2c1.2,0,2.3-0.1,3.3-0.4c1-0.2,1.9-0.6,2.7-1s1.4-0.9,1.8-1.6c0.4-0.6,0.7-1.3,0.7-2.1
		c0-0.9-0.3-1.8-0.9-2.5c-0.6-0.7-1.4-1.3-2.3-1.8c-1-0.5-2-1-3.2-1.4c-1.2-0.4-2.4-0.8-3.5-1.2c-1.5-0.4-2.9-0.9-4.2-1.6
		c-1.4-0.6-2.6-1.4-3.7-2.4c-1.1-1-2-2.1-2.6-3.4c-0.7-1.3-1-2.9-1-4.6c0-3.4,1.2-6.1,3.6-8.1c2.4-2,5.9-3.1,10.5-3.1
		c2.2,0,4.1,0.2,5.8,0.7c1.7,0.5,3.2,1.1,4.4,2c1.2,0.9,2.2,1.9,2.8,3.1c0.7,1.2,1,2.5,1,3.9c0,1.6-0.4,2.9-1.3,3.7
		c-0.9,0.8-2,1.3-3.5,1.3c-1.5,0-2.7-0.4-3.5-1.1c-0.8-0.7-1.3-1.6-1.3-2.6c0-0.8,0.2-1.6,0.7-2.3c0.5-0.7,1.1-1.3,1.8-1.7
		c-0.7-0.9-1.5-1.6-2.6-2.1c-1.1-0.5-2.5-0.7-4.1-0.7c-2.2,0-3.8,0.5-4.9,1.4c-1.1,0.9-1.6,2.2-1.6,3.8c0,1.9,0.6,3.3,1.8,4.2
		c1.2,0.9,2.9,1.7,4.9,2.3c1.9,0.6,3.7,1.1,5.5,1.8c1.8,0.6,3.5,1.4,4.9,2.2c1.4,0.9,2.6,2,3.4,3.3c0.9,1.3,1.3,2.8,1.3,4.7
		c0,1.8-0.4,3.5-1.3,4.9c-0.9,1.4-2.1,2.6-3.6,3.6c-1.5,1-3.3,1.7-5.4,2.2c-2.1,0.5-4.3,0.8-6.7,0.8c-4.5,0-8-0.8-10.5-2.5
		c-2.5-1.6-3.8-3.9-3.8-6.7c0-1.9,0.5-3.4,1.6-4.5c1.1-1.1,2.4-1.6,3.9-1.6c1.1,0,2.2,0.3,3.1,0.9c1,0.6,1.4,1.5,1.4,2.7
		c0,0.8-0.3,1.7-0.8,2.5c-0.5,0.8-1.1,1.4-1.8,1.8c0.5,0.7,1.2,1.5,2.3,2.1C403.5,65.9,405.1,66.2,407.1,66.2z"/>
	<path class="st0" d="M451.1,68.1c-1.2,2.7-2.2,5-3.2,6.9c-1,1.9-2,3.5-3,4.7c-1.1,1.2-2.2,2.1-3.5,2.6c-1.3,0.5-2.8,0.8-4.6,0.8
		c-1.1,0-2.2-0.2-3.1-0.5c-1-0.3-1.8-0.7-2.5-1.3c-0.7-0.6-1.3-1.2-1.7-2c-0.4-0.7-0.6-1.6-0.6-2.5c0-1.6,0.5-3,1.4-4
		c1-1.1,2.2-1.6,3.8-1.6c1.4,0,2.4,0.3,3.1,0.9c0.7,0.6,1.1,1.5,1.1,2.7c0,0.2-0.1,0.5-0.2,0.9c-0.1,0.4-0.3,0.7-0.6,1.1
		c-0.3,0.4-0.6,0.6-1,0.9c-0.4,0.2-0.9,0.4-1.5,0.4c0.1,0.5,0.4,0.8,0.8,0.9c0.4,0.2,0.9,0.2,1.2,0.2c0.5,0,0.9-0.1,1.4-0.2
		c0.4-0.1,0.9-0.4,1.3-0.8c0.4-0.4,0.9-1.1,1.4-2c0.5-0.9,1-2,1.6-3.5l0.8-2.6l-14.1-33.1l-4.2-1.3v-3.9H443l0.6,3.9l-5,1.3
		l8.6,24.4h0.3l7.8-24.4l-4.1-1.3v-3.9h15.4v3.9l-4.3,1.3L451.1,68.1z"/>
</g>
</svg>
