<?xml version="1.0" encoding="utf-8"?>
<!-- Generator: Adobe Illustrator 19.2.1, SVG Export Plug-In . SVG Version: 6.00 Build 0)  -->
<svg version="1.1" id="Layer_1" xmlns="http://www.w3.org/2000/svg" xmlns:xlink="http://www.w3.org/1999/xlink" x="0px" y="0px"
	 viewBox="0 0 500 100" style="enable-background:new 0 0 500 100;" xml:space="preserve">
<style type="text/css">
	.st0{fill:#010101;}
	.st1{fill:#FFFFFF;}
</style>
<g>
	<path class="st0" d="M262.8,67.3c2.4,2.1,9.3,7.5,12.1,7.5c2.7,0,9.5-5.4,12-7.5c-0.2-0.4-0.7-0.8-1.3-0.8H264
		C263.5,66.5,263,66.8,262.8,67.3L262.8,67.3z"/>
	<g>
		<path class="st0" d="M287,80.4V69.1c-1.6,1.4-5.2,4.2-8.4,5.9L287,80.4z"/>
		<path class="st0" d="M271.1,75c-3.2-1.7-6.9-4.6-8.5-6v11.5L271.1,75z"/>
		<path class="st0" d="M277.1,75.8c-0.8,0.3-1.6,0.5-2.2,0.5c-0.6,0-1.4-0.2-2.2-0.5l-9.6,6.2c0.2,0.2,0.6,0.4,1,0.4h21.5
			c0.4,0,0.7-0.1,1-0.4L277.1,75.8z"/>
	</g>
</g>
<g id="Layer_1_1_">
	<path class="st1" d="M27.1,17.1c-0.1,0-0.2,0-0.4,0.1c-0.1,0.1-0.2,0.2-0.3,0.3c-0.1,0.1-0.2,0.3-0.2,0.5c-0.1,0.2-0.1,0.4-0.1,0.6
		v3h5.1v4.1h-5.1v12.6h-4.9V25.7h-4.4v-4.2h4.4V19c0-0.9,0.1-1.7,0.4-2.5c0.3-0.8,0.7-1.5,1.2-2.1c0.5-0.6,1.1-1.1,1.8-1.4
		c0.7-0.3,1.5-0.5,2.3-0.5H31V17L27.1,17.1L27.1,17.1z"/>
	<path class="st1" d="M89.9,17.4c-0.2,0.2-0.4,0.5-0.6,0.7c-0.2,0.2-0.4,0.5-0.6,0.7c-0.2,0.2-0.5,0.4-0.7,0.7
		c-0.2,0.3-0.5,0.4-0.8,0.6c0,0.1,0,0.1,0,0.2c0,0,0,0.1,0,0.2s0,0.1,0,0.2c0,0,0,0.1,0,0.2c0,1.7-0.3,3.5-1,5.4
		c-0.7,1.9-1.7,3.5-3,4.9c-1.3,1.5-2.9,2.7-4.8,3.6c-1.9,0.9-4.1,1.4-6.6,1.4c-0.8,0-1.5,0-2.3-0.1c-0.7-0.1-1.4-0.3-2.1-0.5
		s-1.4-0.4-2-0.8c-0.6-0.3-1.3-0.6-1.9-1c0.1,0,0.2,0,0.3,0s0.2,0,0.3,0c0.1,0,0.2,0,0.3,0c0.1,0,0.2,0,0.3,0c0.6,0,1.2,0,1.8-0.1
		c0.6-0.1,1.2-0.3,1.7-0.4c0.5-0.1,1.1-0.4,1.6-0.7c0.5-0.3,1-0.6,1.5-0.9c-0.6-0.1-1.2-0.2-1.7-0.4c-0.5-0.2-1-0.4-1.5-0.8
		c-0.4-0.4-0.8-0.7-1.1-1.2c-0.3-0.4-0.6-0.9-0.8-1.5c0.1,0.1,0.2,0.1,0.3,0.1c0.1,0,0.2,0,0.3,0s0.2,0,0.3,0c0.1,0,0.1,0,0.2,0
		s0.3,0,0.4,0c0.1,0,0.2,0,0.4,0c0.1,0,0.3-0.1,0.4-0.1c0.1,0,0.2,0,0.3-0.1c-0.6-0.1-1.2-0.3-1.7-0.7c-0.5-0.3-1-0.7-1.4-1.2
		s-0.7-1-0.9-1.6c-0.2-0.6-0.3-1.2-0.3-1.8l0,0l0,0l0,0l0,0c0.2,0.1,0.4,0.3,0.6,0.3c0.2,0.1,0.4,0.1,0.6,0.2C66,23,66.2,23,66.4,23
		c0.2,0,0.4,0,0.6,0.1c-0.4-0.3-0.7-0.6-1-0.9c-0.3-0.3-0.5-0.7-0.8-1.1c-0.2-0.4-0.4-0.8-0.5-1.2c-0.1-0.4-0.2-0.9-0.2-1.4
		c0-0.2,0-0.4,0.1-0.7c0-0.3,0.1-0.5,0.1-0.7s0.1-0.4,0.2-0.7c0.1-0.2,0.2-0.4,0.3-0.6c0.7,0.8,1.4,1.5,2.2,2.2
		c0.8,0.7,1.7,1.3,2.7,1.7c0.9,0.5,1.9,0.8,3,1.1c1,0.3,2.1,0.5,3.2,0.5c0-0.1,0-0.2,0-0.3c0-0.1,0-0.2-0.1-0.3c0-0.1,0-0.2,0-0.3
		s0-0.2,0-0.3c0-0.8,0.1-1.5,0.4-2.1c0.3-0.6,0.7-1.2,1.1-1.7c0.5-0.5,1.1-0.9,1.7-1.2c0.7-0.3,1.4-0.4,2.1-0.4
		c0.4,0,0.7,0.1,1.1,0.1s0.7,0.2,1.1,0.3c0.4,0.1,0.7,0.4,0.9,0.6c0.3,0.2,0.6,0.5,0.8,0.8c0.3-0.1,0.6-0.2,0.9-0.3
		c0.3-0.1,0.6-0.2,0.9-0.3c0.3-0.1,0.6-0.2,0.8-0.4c0.2-0.2,0.5-0.3,0.8-0.5c-0.1,0.4-0.2,0.7-0.4,0.9c-0.2,0.2-0.3,0.5-0.5,0.8
		c-0.2,0.3-0.4,0.5-0.7,0.7s-0.5,0.4-0.8,0.6c0.3-0.1,0.5-0.1,0.8-0.2c0.3,0,0.5-0.1,0.8-0.2c0.3-0.1,0.5-0.2,0.8-0.3
		C89.4,17.6,89.6,17.5,89.9,17.4L89.9,17.4z"/>
	<path class="st1" d="M134,13.2c0.6,0,1.1,0.1,1.5,0.3c0.5,0.2,0.9,0.5,1.2,0.8c0.3,0.3,0.6,0.7,0.8,1.2c0.2,0.5,0.3,1,0.3,1.5v4.2
		l-6.2-0.1c-0.3-0.4-0.7-0.9-1.2-1.3c-0.5-0.4-0.9-0.7-1.5-1c-0.5-0.2-1.1-0.5-1.6-0.6c-0.6-0.2-1.2-0.3-1.8-0.2
		c-0.6,0-1.2,0-1.8,0.2c-0.6,0.2-1.1,0.4-1.6,0.6c-0.5,0.2-1,0.6-1.5,1c-0.4,0.4-0.8,0.8-1.2,1.3l-6.2,0.1V17c0-0.5,0.1-1,0.3-1.5
		c0.2-0.5,0.5-0.9,0.8-1.2c0.3-0.3,0.7-0.6,1.2-0.8c0.5-0.2,1-0.3,1.5-0.3H134L134,13.2z M133,25.5c0-0.2,0-0.3,0-0.4s0-0.2,0-0.4
		c0-0.1,0-0.3-0.1-0.4s0-0.2,0-0.4l5,0.1v9.8c0,0.6-0.1,1.1-0.3,1.5c-0.2,0.4-0.5,0.9-0.8,1.2c-0.3,0.4-0.7,0.7-1.2,0.8
		c-0.5,0.1-1,0.3-1.5,0.3l-16.9-0.1c-0.6,0-1.1-0.1-1.5-0.3c-0.5-0.2-0.9-0.5-1.2-0.8c-0.3-0.3-0.6-0.7-0.8-1.2
		c-0.2-0.5-0.3-1-0.3-1.5v-9.9l5,0.1c0,0.1,0,0.2,0,0.3c0,0.1,0,0.3-0.1,0.4c0,0.1,0,0.2,0,0.4s0,0.3,0,0.4c0,1,0.2,2,0.6,2.9
		c0.4,0.9,0.9,1.7,1.6,2.4c0.7,0.7,1.5,1.2,2.3,1.6c0.9,0.4,1.9,0.6,2.9,0.6c1,0,2-0.2,2.9-0.6c0.9-0.4,1.7-0.9,2.3-1.6
		c0.6-0.7,1.2-1.5,1.6-2.4C132.8,27.5,133,26.5,133,25.5L133,25.5z M130.2,25.5c0,0.6-0.1,1.2-0.4,1.7c-0.2,0.6-0.6,1-1,1.5
		c-0.4,0.4-0.9,0.7-1.5,1c-0.6,0.3-1.2,0.4-1.8,0.3c-0.6,0-1.2-0.1-1.8-0.3c-0.6-0.3-1-0.6-1.5-1c-0.4-0.4-0.7-0.9-1-1.5
		c-0.2-0.6-0.4-1.1-0.4-1.7c0-0.7,0.1-1.3,0.4-1.8c0.2-0.5,0.6-1,1-1.5c0.4-0.4,0.9-0.8,1.5-1c0.6-0.2,1.2-0.4,1.8-0.4
		c0.6,0,1.2,0.2,1.8,0.4c0.6,0.2,1,0.5,1.5,1c0.4,0.4,0.7,0.9,1,1.5C130.1,24.3,130.2,24.9,130.2,25.5z M135.9,17.9v-2
		c0-0.1,0-0.3-0.1-0.3c0-0.1-0.1-0.1-0.1-0.2c-0.1-0.1-0.1-0.1-0.2-0.2c-0.1,0-0.2,0-0.3-0.1l-2.1,0.1c-0.1,0-0.2,0-0.3,0
		c-0.1,0.1-0.1,0.1-0.2,0.2c-0.1,0.1-0.1,0.1-0.1,0.2c0,0.1-0.1,0.2-0.1,0.3V18c0,0.1,0,0.2,0.1,0.3c0,0.1,0.1,0.2,0.1,0.2
		c0.1,0.1,0.1,0.1,0.2,0.2c0.1,0.1,0.2,0.1,0.3,0l2.1,0.1c0.1,0,0.2-0.1,0.3-0.1s0.2-0.1,0.2-0.2c0.1-0.1,0.1-0.2,0.1-0.2
		C135.8,18.1,135.9,18,135.9,17.9z"/>
	<path class="st1" d="M170.3,37.6c-1.6-0.7-3-1.6-4.2-2.8c-1.2-1.2-2.1-2.6-2.8-4.2c-0.7-1.6-1-3.3-1-5.1c0-1.8,0.3-3.5,1-5.1
		c0.7-1.6,1.6-3,2.8-4.2c1.2-1.2,2.6-2.1,4.2-2.8c1.6-0.7,3.3-1,5.1-1s3.5,0.3,5.1,1c1.6,0.7,3,1.6,4.2,2.8c1.2,1.2,2.1,2.6,2.8,4.2
		c0.7,1.6,1,3.3,1,5.1c0,1.8-0.3,3.5-1,5.1c-0.7,1.6-1.6,3-2.8,4.2c-1.2,1.2-2.6,2.1-4.2,2.8c-1.6,0.7-3.3,1-5.1,1.1
		C173.7,38.6,171.9,38.2,170.3,37.6z M176.2,25.5L176.2,25.5h0.2h0.1h0.1c-0.1-0.2-0.1-0.4-0.2-0.5c-0.1-0.1-0.1-0.3-0.2-0.5
		c-0.1-0.2-0.1-0.3-0.2-0.5c-0.1-0.1-0.1-0.3-0.2-0.5c-1.5,0.4-2.9,0.8-4.2,1c-1.4,0.2-2.6,0.4-3.7,0.5c-1.1,0.1-1.9,0.2-2.6,0.1
		c-0.7-0.1-1,0-1.1,0v0.2v0.2c0,0.7,0.1,1.5,0.2,2.1c0.1,0.6,0.3,1.3,0.6,2c0.2,0.7,0.5,1.3,0.9,1.8c0.4,0.6,0.8,1.1,1.2,1.6l0,0
		l0,0l0,0l0,0c0,0,0.2-0.3,0.6-0.9s1-1.3,1.7-2.1c0.7-0.8,1.7-1.6,2.8-2.5C173.4,26.7,174.6,26,176.2,25.5L176.2,25.5z M174.8,21.8
		c-0.5-0.9-1-1.7-1.5-2.5c-0.5-0.8-0.9-1.5-1.3-2c-0.4-0.6-0.7-1-1-1.4c-0.3-0.4-0.4-0.6-0.4-0.6c-0.8,0.3-1.5,0.8-2.2,1.3
		c-0.7,0.5-1.3,1.1-1.8,1.8c-0.5,0.7-1,1.4-1.4,2.2c-0.4,0.8-0.7,1.6-0.8,2.5c0.1,0,0.4,0,1,0s1.4-0.1,2.3-0.1
		c0.9-0.1,2-0.2,3.2-0.4C172.2,22.4,173.5,22.1,174.8,21.8L174.8,21.8z M168.6,34.3L168.6,34.3L168.6,34.3
		C168.5,34.3,168.5,34.3,168.6,34.3c-0.1-0.1-0.1-0.1-0.2-0.1c-0.1,0-0.1,0-0.1-0.1l0.1,0.1C168.5,34.2,168.5,34.2,168.6,34.3
		L168.6,34.3L168.6,34.3L168.6,34.3z M177.3,27.2c-1.6,0.6-3,1.3-4.1,2.1c-1.1,0.8-2,1.5-2.7,2.3c-0.7,0.7-1.2,1.4-1.5,1.8
		c-0.3,0.5-0.5,0.8-0.5,0.8c0.5,0.3,1,0.7,1.5,1c0.5,0.3,1.1,0.6,1.7,0.8c0.6,0.2,1.2,0.3,1.8,0.5c0.6,0.1,1.3,0.2,1.9,0.1
		c0.4,0,0.8,0,1.1,0c0.4-0.1,0.8-0.1,1.1-0.2c0.3-0.1,0.7-0.1,1.1-0.3c0.3-0.1,0.7-0.3,1.1-0.4c-0.1-0.3-0.2-0.7-0.3-1.2
		c-0.1-0.5-0.2-1.2-0.4-1.9s-0.4-1.6-0.7-2.5C178.1,29.2,177.8,28.2,177.3,27.2C177.4,27.3,177.3,27.3,177.3,27.2
		C177.3,27.3,177.3,27.3,177.3,27.2C177.3,27.3,177.3,27.3,177.3,27.2C177.3,27.3,177.3,27.3,177.3,27.2L177.3,27.2z M172.8,14.5
		C172.8,14.6,172.8,14.6,172.8,14.5L172.8,14.5C172.8,14.6,172.7,14.6,172.8,14.5C172.7,14.5,172.7,14.5,172.8,14.5
		C172.7,14.5,172.8,14.5,172.8,14.5C172.8,14.6,172.8,14.6,172.8,14.5L172.8,14.5C172.8,14.6,172.8,14.6,172.8,14.5L172.8,14.5
		L172.8,14.5z M181.2,15.9c-0.6-0.4-1.2-0.7-1.8-0.9c-0.6-0.2-1.3-0.4-2-0.6c-0.7-0.1-1.4-0.2-2.1-0.2c-0.2,0-0.4,0-0.7,0
		c-0.2,0-0.4,0.1-0.7,0.1c-0.2,0-0.4,0.1-0.7,0.1c-0.3,0-0.4,0.1-0.6,0.1c0,0.1,0.2,0.3,0.4,0.7c0.2,0.4,0.6,0.8,1,1.4
		c0.4,0.6,0.8,1.3,1.3,2c0.5,0.7,1,1.6,1.5,2.5c1-0.4,1.9-0.8,2.7-1.3c0.7-0.4,1.3-0.9,1.8-1.3c0.5-0.4,0.8-0.8,1-1
		c0.2-0.3,0.3-0.4,0.3-0.4C182.3,16.6,181.8,16.2,181.2,15.9z M177.8,22.7c0.1,0.2,0.1,0.3,0.2,0.4c0.1,0.1,0.1,0.3,0.2,0.4
		c0.1,0.2,0.1,0.3,0.2,0.4c0.1,0.1,0.1,0.3,0.2,0.4c0,0.1,0.1,0.2,0.1,0.3c0,0,0,0.1,0.1,0.1c0,0.1,0,0.1,0.1,0.1
		c1-0.1,1.9-0.1,2.8-0.1c0.9,0,1.8,0,2.5,0.1s1.3,0.2,1.8,0.2s0.7,0.1,0.7,0.2c0-0.7-0.1-1.4-0.2-2s-0.3-1.2-0.5-1.8
		c-0.2-0.6-0.5-1.2-0.8-1.7c-0.3-0.5-0.7-1-1.1-1.6c0,0-0.1,0.2-0.4,0.5c-0.3,0.3-0.6,0.7-1.1,1.1c-0.5,0.5-1.1,0.9-1.9,1.4
		C179.9,21.6,178.9,22.3,177.8,22.7L177.8,22.7z M179.5,26.7c0.4,1,0.7,2,0.9,2.9c0.2,0.9,0.5,1.7,0.7,2.4c0.2,0.7,0.3,1.3,0.4,1.8
		c0.1,0.5,0.1,0.8,0.1,1c0.6-0.4,1.2-0.9,1.8-1.5c0.6-0.6,1-1.1,1.4-1.8c0.4-0.7,0.8-1.3,1-2c0.3-0.7,0.5-1.5,0.6-2.3
		c-0.1,0-0.3,0-0.7-0.1c-0.4-0.1-0.9-0.2-1.5-0.3s-1.4-0.1-2.2-0.2C181.3,26.5,180.4,26.6,179.5,26.7L179.5,26.7z"/>
	<g>
		<path class="st1" d="M236.1,20.7c0.4,0.4,0.7,0.8,0.9,1.1c0.2,0.4,0.5,0.8,0.7,1.3s0.4,0.9,0.4,1.5c0.1,0.5,0.2,1.1,0.2,1.6
			c0,2.6-0.5,4.6-1.4,6c-0.9,1.4-2,2.5-3.2,3.1c-1.2,0.7-2.4,1.1-3.6,1.2c-1.2,0.1-2,0.2-2.6,0.2c-0.1,0-0.2,0-0.4,0s-0.4,0-0.6,0
			s-0.4,0-0.7,0c-0.3,0-0.5,0-0.7,0c-0.3,0-0.6,0-0.8,0c-0.2,0-0.5,0-0.7,0s-0.4,0-0.6,0c-0.1,0-0.3,0-0.4,0c-0.5,0-1.4-0.1-2.6-0.2
			c-1.2-0.1-2.4-0.5-3.6-1.2c-1.2-0.7-2.3-1.7-3.2-3.1c-0.9-1.4-1.4-3.4-1.3-6c0-0.6,0-1.1,0.1-1.6s0.3-1,0.4-1.5
			c0.2-0.5,0.4-0.9,0.7-1.3c0.3-0.4,0.6-0.8,0.9-1.1c0-0.1-0.1-0.4-0.1-0.8c0-0.4,0-0.9,0.1-1.5c0.1-0.6,0.2-1.2,0.3-1.9
			c0.1-0.7,0.4-1.4,0.7-2.1c0,0,0.1,0,0.4,0.1s0.8,0.2,1.3,0.4c0.5,0.2,1.2,0.5,2,0.9c0.8,0.4,1.7,0.9,2.6,1.6
			c0.3,0,0.5-0.1,0.8-0.1c0.3-0.1,0.5-0.1,0.9-0.1c0.4,0,0.6,0,1-0.1c0.4-0.1,0.7,0,1.1,0c0.3,0,0.6,0,1,0c0.4,0,0.7,0,1,0.1
			c0.3,0,0.6,0.1,0.9,0.1c0.3,0.1,0.5,0.1,0.7,0.1c1-0.7,1.9-1.2,2.7-1.6c0.8-0.4,1.5-0.7,2-0.9c0.6-0.2,1-0.3,1.3-0.4
			c0.3-0.1,0.5-0.1,0.5-0.1c0.3,0.7,0.5,1.4,0.6,2.1c0.2,0.7,0.3,1.3,0.3,1.9c0,0.6,0.1,1.1,0.1,1.5
			C236.2,20.3,236.2,20.5,236.1,20.7z M225.2,35.4c1.4,0,2.6-0.1,3.8-0.2c1.2-0.1,2.2-0.4,3-0.8c0.8-0.4,1.5-1,2-1.8
			c0.5-0.8,0.7-1.8,0.8-3.1c0-0.3-0.1-0.6-0.1-0.9s-0.1-0.6-0.3-0.9c-0.1-0.3-0.3-0.6-0.4-0.8c-0.2-0.3-0.4-0.5-0.7-0.7
			c-0.4-0.4-0.9-0.7-1.5-0.8c-0.6-0.1-1.2-0.2-1.9-0.2s-1.4,0-2.2,0.1c-0.8,0.1-1.6,0.1-2.4,0.1h-0.1l0,0l0,0l0,0l0,0l0,0l0,0
			c-0.9,0-1.7,0-2.4-0.1c-0.8-0.1-1.5-0.1-2.2-0.1c-0.7,0-1.4,0.1-1.9,0.2c-0.6,0.1-1.1,0.4-1.6,0.8c-0.2,0.2-0.4,0.5-0.6,0.7
			c-0.2,0.2-0.4,0.5-0.4,0.8c-0.1,0.3-0.2,0.6-0.3,0.9s-0.1,0.6-0.1,0.9c0,1.3,0.2,2.3,0.7,3.1c0.5,0.8,1.2,1.4,2,1.8
			c0.8,0.4,1.9,0.7,3,0.8C222.6,35.3,223.8,35.4,225.2,35.4L225.2,35.4L225.2,35.4z M220.7,27.4c0.2,0,0.5,0.1,0.7,0.2
			s0.4,0.3,0.6,0.6c0.2,0.3,0.3,0.5,0.4,0.8s0.1,0.6,0.1,1s0,0.7-0.1,1c-0.1,0.3-0.2,0.6-0.4,0.8c-0.1,0.2-0.3,0.4-0.6,0.5
			c-0.2,0.1-0.5,0.2-0.7,0.2c-0.3,0-0.5-0.1-0.8-0.2c-0.2-0.1-0.4-0.3-0.6-0.5c-0.2-0.2-0.3-0.5-0.4-0.8c-0.1-0.3-0.2-0.7-0.2-1
			s0.1-0.7,0.2-1c0.1-0.3,0.2-0.6,0.4-0.8c0.2-0.2,0.4-0.4,0.6-0.6S220.4,27.4,220.7,27.4z M229.7,27.4c0.2,0,0.5,0.1,0.7,0.2
			c0.2,0.1,0.4,0.3,0.6,0.6c0.2,0.3,0.3,0.5,0.4,0.8c0.1,0.3,0.2,0.6,0.1,1c0,0.4,0,0.7-0.1,1c-0.1,0.3-0.3,0.6-0.4,0.8
			c-0.1,0.2-0.3,0.4-0.6,0.5c-0.2,0.1-0.5,0.2-0.7,0.2c-0.3,0-0.5-0.1-0.7-0.2c-0.2-0.1-0.4-0.3-0.6-0.5s-0.3-0.5-0.4-0.8
			c-0.1-0.3-0.1-0.7-0.2-1c0-0.3,0.1-0.7,0.2-1c0.1-0.3,0.2-0.6,0.4-0.8c0.2-0.2,0.4-0.4,0.6-0.6C229.2,27.4,229.4,27.4,229.7,27.4z
			"/>
	</g>
</g>
<g id="Layer_1_2_">
	<path class="st0" d="M27.1,67.2c-0.1,0-0.2,0-0.4,0.1c-0.1,0.1-0.2,0.2-0.3,0.3c-0.1,0.1-0.2,0.3-0.2,0.5c-0.1,0.2-0.1,0.4-0.1,0.6
		v3h5.1v4.1h-5.1v12.6h-4.9V75.7h-4.4v-4.2h4.4v-2.5c0-0.9,0.1-1.7,0.4-2.5c0.3-0.8,0.7-1.5,1.2-2.1c0.5-0.6,1.1-1.1,1.8-1.4
		c0.7-0.3,1.5-0.5,2.3-0.5H31v4.5L27.1,67.2L27.1,67.2z"/>
	<path class="st0" d="M89.9,67.5c-0.2,0.2-0.4,0.5-0.6,0.7c-0.2,0.2-0.4,0.5-0.6,0.7c-0.2,0.2-0.5,0.4-0.7,0.7
		c-0.2,0.3-0.5,0.4-0.8,0.6c0,0.1,0,0.1,0,0.2c0,0,0,0.1,0,0.2c0,0.1,0,0.1,0,0.2c0,0,0,0.1,0,0.2c0,1.7-0.3,3.5-1,5.4
		c-0.7,1.9-1.7,3.5-3,4.9c-1.3,1.5-2.9,2.7-4.8,3.6c-1.9,0.9-4.1,1.4-6.6,1.4c-0.8,0-1.5,0-2.3-0.1c-0.7-0.1-1.4-0.3-2.1-0.5
		c-0.7-0.2-1.4-0.4-2-0.8c-0.6-0.3-1.3-0.6-1.9-1c0.1,0,0.2,0,0.3,0s0.2,0,0.3,0c0.1,0,0.2,0,0.3,0c0.1,0,0.2,0,0.3,0
		c0.6,0,1.2,0,1.8-0.1s1.2-0.3,1.7-0.4s1.1-0.4,1.6-0.7c0.5-0.3,1-0.6,1.5-0.9c-0.6-0.1-1.2-0.2-1.7-0.4c-0.5-0.2-1-0.4-1.5-0.8
		c-0.4-0.4-0.8-0.7-1.1-1.2c-0.3-0.4-0.6-0.9-0.8-1.5c0.1,0.1,0.2,0.1,0.3,0.1c0.1,0,0.2,0,0.3,0s0.2,0,0.3,0c0.1,0,0.1,0,0.2,0
		s0.3,0,0.4,0c0.1,0,0.2,0,0.4,0c0.1,0,0.3-0.1,0.4-0.1c0.1,0,0.2,0,0.3-0.1c-0.6-0.1-1.2-0.3-1.7-0.7c-0.5-0.3-1-0.7-1.4-1.2
		s-0.7-1-0.9-1.6s-0.3-1.2-0.3-1.8l0,0l0,0l0,0l0,0c0.2,0.1,0.4,0.3,0.6,0.3c0.2,0.1,0.4,0.1,0.6,0.2c0.2,0.1,0.4,0.1,0.6,0.1
		c0.2,0,0.4,0,0.6,0.1c-0.4-0.3-0.7-0.6-1-0.9c-0.3-0.3-0.5-0.7-0.8-1.1c-0.2-0.4-0.4-0.8-0.5-1.2s-0.2-0.9-0.2-1.4
		c0-0.2,0-0.4,0.1-0.7c0-0.3,0.1-0.5,0.1-0.7c0-0.2,0.1-0.4,0.2-0.7c0.1-0.2,0.2-0.4,0.3-0.6c0.7,0.8,1.4,1.5,2.2,2.2
		c0.8,0.7,1.7,1.3,2.7,1.7c0.9,0.5,1.9,0.8,3,1.1c1,0.3,2.1,0.5,3.2,0.5c0-0.1,0-0.2,0-0.3c0-0.1,0-0.2-0.1-0.3c0-0.1,0-0.2,0-0.3
		s0-0.2,0-0.3c0-0.8,0.1-1.5,0.4-2.1c0.3-0.6,0.7-1.2,1.1-1.7c0.5-0.5,1.1-0.9,1.7-1.2c0.7-0.3,1.4-0.4,2.1-0.4
		c0.4,0,0.7,0.1,1.1,0.1s0.7,0.2,1.1,0.3s0.7,0.4,0.9,0.6c0.3,0.2,0.6,0.5,0.8,0.8c0.3-0.1,0.6-0.2,0.9-0.3c0.3-0.1,0.6-0.2,0.9-0.3
		c0.3-0.1,0.6-0.2,0.8-0.4c0.2-0.2,0.5-0.3,0.8-0.5c-0.1,0.4-0.2,0.7-0.4,0.9c-0.2,0.2-0.3,0.5-0.5,0.8c-0.2,0.3-0.4,0.5-0.7,0.7
		c-0.3,0.2-0.5,0.4-0.8,0.6c0.3-0.1,0.5-0.1,0.8-0.2c0.3,0,0.5-0.1,0.8-0.2c0.3-0.1,0.5-0.2,0.8-0.3C89.4,67.7,89.6,67.6,89.9,67.5
		L89.9,67.5z"/>
	<path class="st0" d="M134,63.3c0.6,0,1.1,0.1,1.5,0.3c0.5,0.2,0.9,0.5,1.2,0.8c0.3,0.3,0.6,0.7,0.8,1.2c0.2,0.5,0.3,1,0.3,1.5v4.2
		l-6.2-0.1c-0.3-0.4-0.7-0.9-1.2-1.3c-0.5-0.4-0.9-0.7-1.5-1c-0.5-0.2-1.1-0.5-1.6-0.6c-0.6-0.2-1.2-0.3-1.8-0.2
		c-0.6,0-1.2,0-1.8,0.2c-0.6,0.2-1.1,0.4-1.6,0.6c-0.5,0.2-1,0.6-1.5,1c-0.4,0.4-0.8,0.8-1.2,1.3l-6.2,0.1v-4.2c0-0.5,0.1-1,0.3-1.5
		c0.2-0.5,0.5-0.9,0.8-1.2c0.3-0.3,0.7-0.6,1.2-0.8c0.5-0.2,1-0.3,1.5-0.3H134L134,63.3z M133,75.5c0-0.2,0-0.3,0-0.4
		c0-0.1,0-0.2,0-0.4c0-0.1,0-0.3-0.1-0.4c-0.1-0.1,0-0.2,0-0.4l5,0.1v9.8c0,0.6-0.1,1.1-0.3,1.5c-0.2,0.4-0.5,0.9-0.8,1.2
		c-0.3,0.4-0.7,0.7-1.2,0.8c-0.5,0.1-1,0.3-1.5,0.3l-16.9-0.1c-0.6,0-1.1-0.1-1.5-0.3c-0.5-0.2-0.9-0.5-1.2-0.8
		c-0.3-0.3-0.6-0.7-0.8-1.2c-0.2-0.5-0.3-1-0.3-1.5v-9.9l5,0.1c0,0.1,0,0.2,0,0.3s0,0.3-0.1,0.4c0,0.1,0,0.2,0,0.4
		c0,0.2,0,0.3,0,0.4c0,1,0.2,2,0.6,2.9s0.9,1.7,1.6,2.4c0.7,0.7,1.5,1.2,2.3,1.6c0.9,0.4,1.9,0.6,2.9,0.6c1,0,2-0.2,2.9-0.6
		c0.9-0.4,1.7-0.9,2.3-1.6c0.6-0.7,1.2-1.5,1.6-2.4C132.8,77.5,133,76.5,133,75.5L133,75.5z M130.2,75.5c0,0.6-0.1,1.2-0.4,1.7
		c-0.2,0.6-0.6,1-1,1.5c-0.4,0.4-0.9,0.7-1.5,1c-0.6,0.3-1.2,0.4-1.8,0.3c-0.6,0-1.2-0.1-1.8-0.3c-0.6-0.3-1-0.6-1.5-1
		c-0.4-0.4-0.7-0.9-1-1.5c-0.2-0.6-0.4-1.1-0.4-1.7c0-0.7,0.1-1.3,0.4-1.8c0.2-0.5,0.6-1,1-1.5c0.4-0.4,0.9-0.8,1.5-1
		c0.6-0.2,1.2-0.4,1.8-0.4c0.6,0,1.2,0.2,1.8,0.4c0.6,0.2,1,0.5,1.5,1c0.4,0.4,0.7,0.9,1,1.5S130.2,75,130.2,75.5z M135.9,68v-2
		c0-0.1,0-0.3-0.1-0.3c0-0.1-0.1-0.1-0.1-0.2c-0.1-0.1-0.1-0.1-0.2-0.2c-0.1,0-0.2,0-0.3-0.1l-2.1,0.1c-0.1,0-0.2,0-0.3,0
		c-0.1,0.1-0.1,0.1-0.2,0.2c-0.1,0.1-0.1,0.1-0.1,0.2c0,0.1-0.1,0.2-0.1,0.3v2.1c0,0.1,0,0.2,0.1,0.3c0,0.1,0.1,0.2,0.1,0.2
		c0.1,0.1,0.1,0.1,0.2,0.2c0.1,0.1,0.2,0.1,0.3,0l2.1,0.1c0.1,0,0.2-0.1,0.3-0.1s0.2-0.1,0.2-0.2c0.1-0.1,0.1-0.2,0.1-0.2
		C135.8,68.2,135.9,68.1,135.9,68z"/>
	<path class="st0" d="M170.3,87.6c-1.6-0.7-3-1.6-4.2-2.8c-1.2-1.2-2.1-2.6-2.8-4.2c-0.7-1.6-1-3.3-1-5.1s0.3-3.5,1-5.1
		c0.7-1.6,1.6-3,2.8-4.2c1.2-1.2,2.6-2.1,4.2-2.8c1.6-0.7,3.3-1,5.1-1s3.5,0.3,5.1,1c1.6,0.7,3,1.6,4.2,2.8c1.2,1.2,2.1,2.6,2.8,4.2
		c0.7,1.6,1,3.3,1,5.1s-0.3,3.5-1,5.1c-0.7,1.6-1.6,3-2.8,4.2c-1.2,1.2-2.6,2.1-4.2,2.8c-1.6,0.7-3.3,1-5.1,1.1
		C173.7,88.6,171.9,88.2,170.3,87.6z M176.2,75.5L176.2,75.5h0.2h0.1h0.1c-0.1-0.2-0.1-0.4-0.2-0.5c-0.1-0.1-0.1-0.3-0.2-0.5
		c-0.1-0.2-0.1-0.3-0.2-0.5c-0.1-0.1-0.1-0.3-0.2-0.5c-1.5,0.4-2.9,0.8-4.2,1c-1.4,0.2-2.6,0.4-3.7,0.5c-1.1,0.1-1.9,0.2-2.6,0.1
		c-0.7-0.1-1,0-1.1,0v0.2v0.2c0,0.7,0.1,1.5,0.2,2.1c0.1,0.6,0.3,1.3,0.6,2c0.2,0.7,0.5,1.3,0.9,1.8c0.4,0.6,0.8,1.1,1.2,1.6l0,0
		l0,0l0,0l0,0c0,0,0.2-0.3,0.6-0.9c0.4-0.6,1-1.3,1.7-2.1c0.7-0.8,1.7-1.6,2.8-2.5C173.4,76.7,174.6,76,176.2,75.5L176.2,75.5z
		 M174.8,71.9c-0.5-0.9-1-1.7-1.5-2.5c-0.5-0.8-0.9-1.5-1.3-2c-0.4-0.6-0.7-1-1-1.4c-0.3-0.4-0.4-0.6-0.4-0.6
		c-0.8,0.3-1.5,0.8-2.2,1.3c-0.7,0.5-1.3,1.1-1.8,1.8c-0.5,0.7-1,1.4-1.4,2.2c-0.4,0.8-0.7,1.6-0.8,2.5c0.1,0,0.4,0,1,0
		s1.4-0.1,2.3-0.1c0.9-0.1,2-0.2,3.2-0.4C172.2,72.5,173.5,72.2,174.8,71.9L174.8,71.9z M168.6,84.3L168.6,84.3L168.6,84.3
		C168.5,84.3,168.5,84.3,168.6,84.3c-0.1-0.1-0.1-0.1-0.2-0.1c-0.1,0-0.1,0-0.1-0.1l0.1,0.1C168.5,84.2,168.5,84.2,168.6,84.3
		L168.6,84.3L168.6,84.3L168.6,84.3z M177.3,77.2c-1.6,0.6-3,1.3-4.1,2.1s-2,1.5-2.7,2.3c-0.7,0.7-1.2,1.4-1.5,1.8
		c-0.3,0.5-0.5,0.8-0.5,0.8c0.5,0.3,1,0.7,1.5,1c0.5,0.3,1.1,0.6,1.7,0.8c0.6,0.2,1.2,0.3,1.8,0.5c0.6,0.1,1.3,0.2,1.9,0.1
		c0.4,0,0.8,0,1.1,0c0.4-0.1,0.8-0.1,1.1-0.2c0.3-0.1,0.7-0.1,1.1-0.3c0.3-0.1,0.7-0.3,1.1-0.4c-0.1-0.3-0.2-0.7-0.3-1.2
		c-0.1-0.5-0.2-1.2-0.4-1.9c-0.2-0.7-0.4-1.6-0.7-2.5C178.1,79.2,177.8,78.2,177.3,77.2C177.4,77.3,177.3,77.3,177.3,77.2
		C177.3,77.3,177.3,77.3,177.3,77.2C177.3,77.3,177.3,77.3,177.3,77.2C177.3,77.3,177.3,77.3,177.3,77.2L177.3,77.2z M172.8,64.6
		C172.8,64.7,172.8,64.7,172.8,64.6L172.8,64.6C172.8,64.7,172.7,64.7,172.8,64.6C172.7,64.6,172.7,64.6,172.8,64.6
		C172.7,64.6,172.8,64.6,172.8,64.6C172.8,64.7,172.8,64.7,172.8,64.6L172.8,64.6C172.8,64.7,172.8,64.7,172.8,64.6L172.8,64.6
		L172.8,64.6z M181.2,66c-0.6-0.4-1.2-0.7-1.8-0.9c-0.6-0.2-1.3-0.4-2-0.6c-0.7-0.1-1.4-0.2-2.1-0.2c-0.2,0-0.4,0-0.7,0
		c-0.2,0-0.4,0.1-0.7,0.1c-0.2,0-0.4,0.1-0.7,0.1c-0.3,0-0.4,0.1-0.6,0.1c0,0.1,0.2,0.3,0.4,0.7s0.6,0.8,1,1.4
		c0.4,0.6,0.8,1.3,1.3,2c0.5,0.7,1,1.6,1.5,2.5c1-0.4,1.9-0.8,2.7-1.3c0.7-0.4,1.3-0.9,1.8-1.3c0.5-0.4,0.8-0.8,1-1
		c0.2-0.3,0.3-0.4,0.3-0.4C182.3,66.7,181.8,66.3,181.2,66z M177.8,72.8c0.1,0.2,0.1,0.3,0.2,0.4c0.1,0.1,0.1,0.3,0.2,0.4
		c0.1,0.2,0.1,0.3,0.2,0.4c0.1,0.1,0.1,0.3,0.2,0.4c0,0.1,0.1,0.2,0.1,0.3c0,0,0,0.1,0.1,0.1c0,0.1,0,0.1,0.1,0.1
		c1-0.1,1.9-0.1,2.8-0.1c0.9,0,1.8,0,2.5,0.1c0.7,0.1,1.3,0.2,1.8,0.2s0.7,0.1,0.7,0.2c0-0.7-0.1-1.4-0.2-2
		c-0.1-0.6-0.3-1.2-0.5-1.8c-0.2-0.6-0.5-1.2-0.8-1.7c-0.3-0.5-0.7-1-1.1-1.6c0,0-0.1,0.2-0.4,0.5c-0.3,0.3-0.6,0.7-1.1,1.1
		c-0.5,0.5-1.1,0.9-1.9,1.4S178.9,72.4,177.8,72.8L177.8,72.8z M179.5,76.7c0.4,1,0.7,2,0.9,2.9c0.2,0.9,0.5,1.7,0.7,2.4
		c0.2,0.7,0.3,1.3,0.4,1.8c0.1,0.5,0.1,0.8,0.1,1c0.6-0.4,1.2-0.9,1.8-1.5c0.6-0.6,1-1.1,1.4-1.8c0.4-0.7,0.8-1.3,1-2
		c0.3-0.7,0.5-1.5,0.6-2.3c-0.1,0-0.3,0-0.7-0.1c-0.4-0.1-0.9-0.2-1.5-0.3s-1.4-0.1-2.2-0.2C181.3,76.5,180.4,76.6,179.5,76.7
		L179.5,76.7z"/>
	<g>
		<path class="st0" d="M236.1,70.8c0.4,0.4,0.7,0.8,0.9,1.1c0.2,0.4,0.5,0.8,0.7,1.3c0.2,0.5,0.4,0.9,0.4,1.5
			c0.1,0.5,0.2,1.1,0.2,1.6c0,2.6-0.5,4.6-1.4,6c-0.9,1.4-2,2.5-3.2,3.1c-1.2,0.7-2.4,1.1-3.6,1.2c-1.2,0.1-2,0.2-2.6,0.2
			c-0.1,0-0.2,0-0.4,0s-0.4,0-0.6,0s-0.4,0-0.7,0c-0.3,0-0.5,0-0.7,0c-0.3,0-0.6,0-0.8,0c-0.2,0-0.5,0-0.7,0s-0.4,0-0.6,0
			c-0.1,0-0.3,0-0.4,0c-0.5,0-1.4-0.1-2.6-0.2c-1.2-0.1-2.4-0.5-3.6-1.2s-2.3-1.7-3.2-3.1c-0.9-1.4-1.4-3.4-1.3-6
			c0-0.6,0-1.1,0.1-1.6s0.3-1,0.4-1.5c0.2-0.5,0.4-0.9,0.7-1.3c0.3-0.4,0.6-0.8,0.9-1.1c0-0.1-0.1-0.4-0.1-0.8c0-0.4,0-0.9,0.1-1.5
			c0.1-0.6,0.2-1.2,0.3-1.9c0.1-0.7,0.4-1.4,0.7-2.1c0,0,0.1,0,0.4,0.1c0.3,0.1,0.8,0.2,1.3,0.4c0.5,0.2,1.2,0.5,2,0.9
			c0.8,0.4,1.7,0.9,2.6,1.6c0.3,0,0.5-0.1,0.8-0.1c0.3-0.1,0.5-0.1,0.9-0.1c0.4,0,0.6,0,1-0.1c0.4-0.1,0.7,0,1.1,0c0.3,0,0.6,0,1,0
			c0.4,0,0.7,0,1,0.1c0.3,0,0.6,0.1,0.9,0.1c0.3,0.1,0.5,0.1,0.7,0.1c1-0.7,1.9-1.2,2.7-1.6c0.8-0.4,1.5-0.7,2-0.9
			c0.6-0.2,1-0.3,1.3-0.4c0.3-0.1,0.5-0.1,0.5-0.1c0.3,0.7,0.5,1.4,0.6,2.1c0.2,0.7,0.3,1.3,0.3,1.9c0,0.6,0.1,1.1,0.1,1.5
			C236.2,70.4,236.2,70.6,236.1,70.8z M225.2,85.4c1.4,0,2.6-0.1,3.8-0.2c1.2-0.1,2.2-0.4,3-0.8c0.8-0.4,1.5-1,2-1.8
			c0.5-0.8,0.7-1.8,0.8-3.1c0-0.3-0.1-0.6-0.1-0.9c0-0.3-0.1-0.6-0.3-0.9c-0.1-0.3-0.3-0.6-0.4-0.8c-0.2-0.3-0.4-0.5-0.7-0.7
			c-0.4-0.4-0.9-0.7-1.5-0.8c-0.6-0.1-1.2-0.2-1.9-0.2s-1.4,0-2.2,0.1c-0.8,0.1-1.6,0.1-2.4,0.1h-0.1l0,0l0,0l0,0l0,0l0,0l0,0
			c-0.9,0-1.7,0-2.4-0.1c-0.8-0.1-1.5-0.1-2.2-0.1c-0.7,0-1.4,0.1-1.9,0.2c-0.6,0.1-1.1,0.4-1.6,0.8c-0.2,0.2-0.4,0.5-0.6,0.7
			c-0.2,0.2-0.4,0.5-0.4,0.8c-0.1,0.3-0.2,0.6-0.3,0.9c-0.1,0.3-0.1,0.6-0.1,0.9c0,1.3,0.2,2.3,0.7,3.1c0.5,0.8,1.2,1.4,2,1.8
			c0.8,0.4,1.9,0.7,3,0.8C222.6,85.3,223.8,85.4,225.2,85.4L225.2,85.4L225.2,85.4z M220.7,77.4c0.2,0,0.5,0.1,0.7,0.2
			c0.2,0.1,0.4,0.3,0.6,0.6c0.2,0.3,0.3,0.5,0.4,0.8c0.1,0.3,0.1,0.6,0.1,1c0,0.4,0,0.7-0.1,1c-0.1,0.3-0.2,0.6-0.4,0.8
			c-0.1,0.2-0.3,0.4-0.6,0.5c-0.2,0.1-0.5,0.2-0.7,0.2c-0.3,0-0.5-0.1-0.8-0.2c-0.2-0.1-0.4-0.3-0.6-0.5c-0.2-0.2-0.3-0.5-0.4-0.8
			c-0.1-0.3-0.2-0.7-0.2-1c0-0.3,0.1-0.7,0.2-1c0.1-0.3,0.2-0.6,0.4-0.8c0.2-0.2,0.4-0.4,0.6-0.6C220.1,77.4,220.4,77.4,220.7,77.4z
			 M229.7,77.4c0.2,0,0.5,0.1,0.7,0.2c0.2,0.1,0.4,0.3,0.6,0.6c0.2,0.3,0.3,0.5,0.4,0.8c0.1,0.3,0.2,0.6,0.1,1c0,0.4,0,0.7-0.1,1
			s-0.3,0.6-0.4,0.8c-0.1,0.2-0.3,0.4-0.6,0.5c-0.2,0.1-0.5,0.2-0.7,0.2c-0.3,0-0.5-0.1-0.7-0.2s-0.4-0.3-0.6-0.5
			c-0.2-0.2-0.3-0.5-0.4-0.8c-0.1-0.3-0.1-0.7-0.2-1c0-0.3,0.1-0.7,0.2-1c0.1-0.3,0.2-0.6,0.4-0.8c0.2-0.2,0.4-0.4,0.6-0.6
			C229.2,77.4,229.4,77.4,229.7,77.4z"/>
	</g>
</g>
<g>
	<path class="st1" d="M262.8,17.2c2.4,2.1,9.3,7.5,12.1,7.5c2.7,0,9.5-5.4,12-7.5c-0.2-0.4-0.7-0.8-1.3-0.8h-21.6
		C263.5,16.5,263,16.8,262.8,17.2C262.8,17.2,262.8,17.2,262.8,17.2z"/>
	<g>
		<path class="st1" d="M287.1,30.4V19.1c-1.6,1.4-5.2,4.2-8.4,5.9L287.1,30.4z"/>
		<path class="st1" d="M271.1,25c-3.2-1.7-6.9-4.6-8.5-6v11.5L271.1,25z"/>
		<path class="st1" d="M277.1,25.8c-0.8,0.3-1.6,0.5-2.2,0.5c-0.6,0-1.4-0.2-2.2-0.5l-9.6,6.2c0.2,0.2,0.6,0.4,1,0.4h21.6
			c0.4,0,0.7-0.1,1-0.4L277.1,25.8z"/>
	</g>
</g>
<path class="st1" d="M480.2,16.9v4.9c-0.1,0.1-0.3,0.3-0.4,0.3c-0.2,0.1-0.3,0.1-0.4,0.1c-0.1,0-0.2,0-0.3-0.1
	c-0.1-0.1-0.1-0.2-0.1-0.3v-4.9h-1.3v5.4c0,0.4,0.1,0.7,0.2,0.9c0.2,0.2,0.4,0.3,0.7,0.3c0.3,0,0.5-0.1,0.8-0.2
	c0.3-0.1,0.5-0.3,0.7-0.6v0.7h1.3v-6.4H480.2z M476.2,17.3c-0.3-0.3-0.8-0.5-1.3-0.5c-0.6,0-1.1,0.2-1.4,0.5
	c-0.3,0.3-0.5,0.7-0.5,1.2v3.3c0,0.6,0.2,1,0.5,1.3c0.3,0.3,0.8,0.5,1.4,0.5c0.6,0,1.1-0.2,1.4-0.5c0.3-0.3,0.5-0.7,0.5-1.3v-3.3
	C476.7,18,476.5,17.6,476.2,17.3z M475.4,21.9c0,0.2-0.1,0.3-0.2,0.4c-0.1,0.1-0.2,0.2-0.4,0.2c-0.2,0-0.3-0.1-0.4-0.2
	c-0.1-0.1-0.1-0.2-0.1-0.4v-3.5c0-0.1,0.1-0.3,0.2-0.3c0.1-0.1,0.2-0.1,0.4-0.1c0.2,0,0.3,0,0.4,0.1c0.1,0.1,0.2,0.2,0.2,0.3V21.9z
	 M471.3,14.7l-0.9,3.5h-0.1l-1-3.5h-1.5l1.8,5.3v3.4h1.5v-3.6l1.7-5.1H471.3z M481.5,30c0.1,0.1,0.1,0.3,0.1,0.5v0.6h-1v-0.6
	c0-0.2,0-0.4,0.1-0.5c0.1-0.1,0.2-0.2,0.4-0.2C481.3,29.8,481.4,29.9,481.5,30z M477.5,29.9c-0.1-0.1-0.2-0.2-0.4-0.2
	c-0.1,0-0.2,0-0.2,0.1c-0.1,0-0.2,0.1-0.2,0.2v3.6c0.1,0.1,0.2,0.2,0.3,0.2c0.1,0,0.2,0.1,0.3,0.1c0.2,0,0.3,0,0.3-0.1
	c0.1-0.1,0.1-0.2,0.1-0.4v-3C477.6,30.2,477.6,30,477.5,29.9z M477.5,29.9c-0.1-0.1-0.2-0.2-0.4-0.2c-0.1,0-0.2,0-0.2,0.1
	c-0.1,0-0.2,0.1-0.2,0.2v3.6c0.1,0.1,0.2,0.2,0.3,0.2c0.1,0,0.2,0.1,0.3,0.1c0.2,0,0.3,0,0.3-0.1c0.1-0.1,0.1-0.2,0.1-0.4v-3
	C477.6,30.2,477.6,30,477.5,29.9z M484.1,25.5h-18.2c-2,0-3.6,1.6-3.6,3.7v3.7c0,2,1.6,3.6,3.6,3.6h18.2c2,0,3.6-1.6,3.6-3.6v-3.7
	C487.7,27.1,486.1,25.5,484.1,25.5z M470.8,28h-1.4v6.7h-1.3V28h-1.4v-1.1h4V28z M474.6,34.8h-1.2v-0.6c-0.2,0.2-0.4,0.4-0.7,0.5
	c-0.2,0.1-0.5,0.2-0.7,0.2c-0.3,0-0.5-0.1-0.6-0.3c-0.1-0.2-0.2-0.4-0.2-0.8v-4.9h1.2v4.5c0,0.1,0,0.2,0.1,0.3
	c0,0.1,0.1,0.1,0.2,0.1c0.1,0,0.2,0,0.3-0.1c0.1-0.1,0.3-0.2,0.4-0.3v-4.4h1.2V34.8z M478.8,33.6c0,0.4-0.1,0.7-0.3,1
	c-0.2,0.2-0.5,0.3-0.8,0.3c-0.2,0-0.4,0-0.6-0.1c-0.2-0.1-0.3-0.2-0.5-0.4v0.5h-1.2v-7.9h1.2v2.5c0.2-0.2,0.3-0.3,0.5-0.4
	c0.2-0.1,0.4-0.1,0.5-0.1c0.4,0,0.6,0.1,0.8,0.4c0.2,0.2,0.3,0.6,0.3,1.1V33.6z M482.9,32h-2.2v1.1c0,0.3,0,0.5,0.1,0.6
	c0.1,0.1,0.2,0.2,0.4,0.2c0.2,0,0.3-0.1,0.4-0.2c0.1-0.1,0.1-0.3,0.1-0.7v-0.3h1.2v0.3c0,0.6-0.2,1.1-0.5,1.4
	c-0.3,0.3-0.7,0.5-1.3,0.5c-0.5,0-0.9-0.2-1.2-0.5c-0.3-0.3-0.4-0.8-0.4-1.3v-2.6c0-0.5,0.2-0.9,0.5-1.2c0.3-0.3,0.7-0.5,1.3-0.5
	c0.5,0,0.9,0.2,1.2,0.5c0.3,0.3,0.4,0.7,0.4,1.3V32z M477.1,29.8c-0.1,0-0.2,0-0.2,0.1c-0.1,0-0.2,0.1-0.2,0.2v3.6
	c0.1,0.1,0.2,0.2,0.3,0.2c0.1,0,0.2,0.1,0.3,0.1c0.2,0,0.3,0,0.3-0.1c0.1-0.1,0.1-0.2,0.1-0.4v-3c0-0.2,0-0.3-0.1-0.4
	C477.4,29.8,477.3,29.8,477.1,29.8z M477.5,29.9c-0.1-0.1-0.2-0.2-0.4-0.2c-0.1,0-0.2,0-0.2,0.1c-0.1,0-0.2,0.1-0.2,0.2v3.6
	c0.1,0.1,0.2,0.2,0.3,0.2c0.1,0,0.2,0.1,0.3,0.1c0.2,0,0.3,0,0.3-0.1c0.1-0.1,0.1-0.2,0.1-0.4v-3C477.6,30.2,477.6,30,477.5,29.9z
	 M477.5,29.9c-0.1-0.1-0.2-0.2-0.4-0.2c-0.1,0-0.2,0-0.2,0.1c-0.1,0-0.2,0.1-0.2,0.2v3.6c0.1,0.1,0.2,0.2,0.3,0.2
	c0.1,0,0.2,0.1,0.3,0.1c0.2,0,0.3,0,0.3-0.1c0.1-0.1,0.1-0.2,0.1-0.4v-3C477.6,30.2,477.6,30,477.5,29.9z"/>
<path class="st1" d="M425,11.8c-7.1,0-12.8,5.7-12.8,12.8c0,5.2,3.1,9.7,7.6,11.7c0-0.9,0-2,0.2-2.9c0.2-1,1.6-7,1.6-7
	s-0.4-0.8-0.4-2c0-1.9,1.1-3.3,2.5-3.3c1.2,0,1.7,0.9,1.7,1.9c0,1.2-0.7,2.9-1.1,4.5c-0.3,1.4,0.7,2.5,2,2.5c2.4,0,4-3.1,4-6.8
	c0-2.8-1.9-4.9-5.3-4.9c-3.9,0-6.3,2.9-6.3,6.1c0,1.1,0.3,1.9,0.8,2.5c0.2,0.3,0.3,0.4,0.2,0.7c-0.1,0.2-0.2,0.8-0.3,1
	c-0.1,0.3-0.3,0.4-0.6,0.3c-1.8-0.7-2.6-2.7-2.6-4.9c0-3.6,3.1-8,9.1-8c4.9,0,8.1,3.5,8.1,7.3c0,5-2.8,8.8-6.9,8.8
	c-1.4,0-2.7-0.7-3.1-1.6c0,0-0.7,2.9-0.9,3.5c-0.3,1-0.8,2-1.3,2.7c1.1,0.3,2.4,0.5,3.6,0.5c7.1,0,12.8-5.7,12.8-12.8
	C437.7,17.5,432,11.8,425,11.8"/>
<path class="st1" d="M370.7,37.1c-3,0-5.2-1.9-5.2-4.2c0-2.3,2.7-4.1,5.8-4.1c0.7,0,1.4,0.1,2,0.3c1.6,1.1,2.8,1.8,3.2,3.1
	c0.1,0.3,0.1,0.5,0.1,0.8C376.5,35.3,375,37.1,370.7,37.1 M371.5,23.5c-2-0.1-4-2.3-4.3-5c-0.4-2.7,1-4.7,3.1-4.7
	c2,0.1,4,2.2,4.3,4.9C374.9,21.5,373.6,23.6,371.5,23.5 M375.7,27.5c-0.7-0.5-2.1-1.7-2.1-2.5c0-0.8,0.2-1.3,1.5-2.3
	c1.3-1,2.2-2.5,2.2-4.1c0-2-0.9-3.9-2.5-4.6h2.5l1.8-1.3h-7.9c-3.5,0-6.9,2.7-6.9,5.8c0,3.2,2.4,5.7,6,5.7c0.3,0,0.5,0,0.7,0
	c-0.2,0.4-0.4,1-0.4,1.5c0,0.9,0.5,1.6,1.1,2.2c-0.5,0-0.9,0-1.4,0c-4.4,0-7.8,2.8-7.8,5.7c0,2.9,3.7,4.6,8.1,4.6
	c5,0,7.8-2.8,7.8-5.7C378.5,30.4,377.8,29,375.7,27.5 M387.2,23.8h-3.1v-3.1h-2.5v3.1h-3.1v2.5h3.1v3.1h2.5v-3.1h3.1V23.8z"/>
<path class="st1" d="M318.1,36.4h-5V20.5h5V36.4z M315.5,18.5L315.5,18.5c-1.8,0-3-1.2-3-2.8c0-1.6,1.2-2.8,3-2.8c1.8,0,3,1.2,3,2.8
	C318.6,17.2,317.4,18.5,315.5,18.5z M338,36.4h-5.6v-8.2c0-2.2-0.9-3.6-2.8-3.6c-1.5,0-2.3,1-2.7,2c-0.1,0.3-0.1,0.8-0.1,1.3v8.6
	h-5.6c0,0,0.1-14.6,0-15.9h5.6V23c0.3-1.1,2.1-2.7,5-2.7c3.5,0,6.3,2.3,6.3,7.2V36.4z"/>
<path class="st0" d="M480.3,67.2V72c-0.1,0.1-0.3,0.3-0.4,0.3c-0.2,0.1-0.3,0.1-0.4,0.1c-0.1,0-0.2,0-0.3-0.1
	c-0.1-0.1-0.1-0.2-0.1-0.3v-4.9h-1.3v5.4c0,0.4,0.1,0.7,0.2,0.9c0.2,0.2,0.4,0.3,0.7,0.3c0.3,0,0.5-0.1,0.8-0.2
	c0.3-0.1,0.5-0.3,0.7-0.6v0.7h1.3v-6.4H480.3z M476.3,67.5c-0.3-0.3-0.8-0.5-1.3-0.5c-0.6,0-1.1,0.2-1.4,0.5
	c-0.3,0.3-0.5,0.7-0.5,1.2v3.3c0,0.6,0.2,1,0.5,1.3c0.3,0.3,0.8,0.5,1.4,0.5c0.6,0,1.1-0.2,1.4-0.5c0.3-0.3,0.5-0.7,0.5-1.3v-3.3
	C476.8,68.2,476.6,67.8,476.3,67.5z M475.4,72.1c0,0.2-0.1,0.3-0.2,0.4c-0.1,0.1-0.2,0.2-0.4,0.2c-0.2,0-0.3-0.1-0.4-0.2
	c-0.1-0.1-0.1-0.2-0.1-0.4v-3.5c0-0.1,0.1-0.3,0.2-0.3c0.1-0.1,0.2-0.1,0.4-0.1c0.2,0,0.3,0,0.4,0.1c0.1,0.1,0.2,0.2,0.2,0.3V72.1z
	 M471.4,64.9l-0.9,3.5h-0.1l-1-3.5h-1.5l1.8,5.3v3.4h1.5V70l1.7-5.1H471.4z M481.6,80.2c0.1,0.1,0.1,0.3,0.1,0.5v0.6h-1v-0.6
	c0-0.2,0-0.4,0.1-0.5c0.1-0.1,0.2-0.2,0.4-0.2C481.4,80,481.5,80.1,481.6,80.2z M477.6,80.2c-0.1-0.1-0.2-0.2-0.4-0.2
	c-0.1,0-0.2,0-0.2,0.1c-0.1,0-0.2,0.1-0.2,0.2v3.6c0.1,0.1,0.2,0.2,0.3,0.2c0.1,0,0.2,0.1,0.3,0.1c0.2,0,0.3,0,0.3-0.1
	c0.1-0.1,0.1-0.2,0.1-0.4v-3C477.7,80.4,477.7,80.3,477.6,80.2z M477.6,80.2c-0.1-0.1-0.2-0.2-0.4-0.2c-0.1,0-0.2,0-0.2,0.1
	c-0.1,0-0.2,0.1-0.2,0.2v3.6c0.1,0.1,0.2,0.2,0.3,0.2c0.1,0,0.2,0.1,0.3,0.1c0.2,0,0.3,0,0.3-0.1c0.1-0.1,0.1-0.2,0.1-0.4v-3
	C477.7,80.4,477.7,80.3,477.6,80.2z M484.2,75.7h-18.2c-2,0-3.6,1.6-3.6,3.7V83c0,2,1.6,3.6,3.6,3.6h18.2c2,0,3.6-1.6,3.6-3.6v-3.7
	C487.8,77.3,486.2,75.7,484.2,75.7z M470.8,78.2h-1.4V85h-1.3v-6.7h-1.4v-1.1h4V78.2z M474.7,85h-1.2v-0.6c-0.2,0.2-0.4,0.4-0.7,0.5
	c-0.2,0.1-0.5,0.2-0.7,0.2c-0.3,0-0.5-0.1-0.6-0.3c-0.1-0.2-0.2-0.4-0.2-0.8v-4.9h1.2v4.5c0,0.1,0,0.2,0.1,0.3
	c0,0.1,0.1,0.1,0.2,0.1c0.1,0,0.2,0,0.3-0.1c0.1-0.1,0.3-0.2,0.4-0.3v-4.4h1.2V85z M478.9,83.8c0,0.4-0.1,0.7-0.3,1
	c-0.2,0.2-0.5,0.3-0.8,0.3c-0.2,0-0.4,0-0.6-0.1c-0.2-0.1-0.3-0.2-0.5-0.4V85h-1.2v-7.9h1.2v2.5c0.2-0.2,0.3-0.3,0.5-0.4
	c0.2-0.1,0.4-0.1,0.5-0.1c0.4,0,0.6,0.1,0.8,0.4c0.2,0.2,0.3,0.6,0.3,1.1V83.8z M482.9,82.2h-2.2v1.1c0,0.3,0,0.5,0.1,0.6
	c0.1,0.1,0.2,0.2,0.4,0.2c0.2,0,0.3-0.1,0.4-0.2c0.1-0.1,0.1-0.3,0.1-0.7V83h1.2v0.3c0,0.6-0.2,1.1-0.5,1.4
	c-0.3,0.3-0.7,0.5-1.3,0.5c-0.5,0-0.9-0.2-1.2-0.5c-0.3-0.3-0.4-0.8-0.4-1.3v-2.6c0-0.5,0.2-0.9,0.5-1.2c0.3-0.3,0.7-0.5,1.3-0.5
	c0.5,0,0.9,0.2,1.2,0.5c0.3,0.3,0.4,0.7,0.4,1.3V82.2z M477.2,80c-0.1,0-0.2,0-0.2,0.1c-0.1,0-0.2,0.1-0.2,0.2v3.6
	c0.1,0.1,0.2,0.2,0.3,0.2c0.1,0,0.2,0.1,0.3,0.1c0.2,0,0.3,0,0.3-0.1c0.1-0.1,0.1-0.2,0.1-0.4v-3c0-0.2,0-0.3-0.1-0.4
	C477.5,80.1,477.4,80,477.2,80z M477.6,80.2c-0.1-0.1-0.2-0.2-0.4-0.2c-0.1,0-0.2,0-0.2,0.1c-0.1,0-0.2,0.1-0.2,0.2v3.6
	c0.1,0.1,0.2,0.2,0.3,0.2c0.1,0,0.2,0.1,0.3,0.1c0.2,0,0.3,0,0.3-0.1c0.1-0.1,0.1-0.2,0.1-0.4v-3C477.7,80.4,477.7,80.3,477.6,80.2z
	 M477.6,80.2c-0.1-0.1-0.2-0.2-0.4-0.2c-0.1,0-0.2,0-0.2,0.1c-0.1,0-0.2,0.1-0.2,0.2v3.6c0.1,0.1,0.2,0.2,0.3,0.2
	c0.1,0,0.2,0.1,0.3,0.1c0.2,0,0.3,0,0.3-0.1c0.1-0.1,0.1-0.2,0.1-0.4v-3C477.7,80.4,477.7,80.3,477.6,80.2z"/>
<path class="st0" d="M425,62c-7.1,0-12.8,5.7-12.8,12.8c0,5.2,3.1,9.7,7.6,11.7c0-0.9,0-2,0.2-2.9c0.2-1,1.6-7,1.6-7s-0.4-0.8-0.4-2
	c0-1.9,1.1-3.3,2.5-3.3c1.2,0,1.7,0.9,1.7,1.9c0,1.2-0.7,2.9-1.1,4.5c-0.3,1.4,0.7,2.5,2,2.5c2.4,0,4-3.1,4-6.8
	c0-2.8-1.9-4.9-5.3-4.9c-3.9,0-6.3,2.9-6.3,6.1c0,1.1,0.3,1.9,0.8,2.5c0.2,0.3,0.3,0.4,0.2,0.7c-0.1,0.2-0.2,0.8-0.3,1
	c-0.1,0.3-0.3,0.4-0.6,0.3c-1.8-0.7-2.6-2.7-2.6-4.9c0-3.6,3.1-8,9.1-8c4.9,0,8.1,3.5,8.1,7.3c0,5-2.8,8.8-6.9,8.8
	c-1.4,0-2.7-0.7-3.1-1.6c0,0-0.7,2.9-0.9,3.5c-0.3,1-0.8,2-1.3,2.7c1.1,0.3,2.4,0.5,3.6,0.5c7.1,0,12.8-5.7,12.8-12.8
	C437.8,67.7,432.1,62,425,62"/>
<path class="st0" d="M370.8,87.3c-3,0-5.2-1.9-5.2-4.2c0-2.3,2.7-4.1,5.8-4.1c0.7,0,1.4,0.1,2,0.3c1.6,1.1,2.8,1.8,3.2,3.1
	c0.1,0.3,0.1,0.5,0.1,0.8C376.6,85.5,375.1,87.3,370.8,87.3 M371.6,73.8c-2-0.1-4-2.3-4.3-5c-0.4-2.7,1-4.7,3.1-4.7
	c2,0.1,4,2.2,4.3,4.9C375,71.7,373.6,73.8,371.6,73.8 M375.8,77.7c-0.7-0.5-2.1-1.7-2.1-2.5c0-0.8,0.2-1.3,1.5-2.3
	c1.3-1,2.2-2.5,2.2-4.1c0-2-0.9-3.9-2.5-4.6h2.5l1.8-1.3h-7.9c-3.5,0-6.9,2.7-6.9,5.8c0,3.2,2.4,5.7,6,5.7c0.3,0,0.5,0,0.7,0
	c-0.2,0.4-0.4,1-0.4,1.5c0,0.9,0.5,1.6,1.1,2.2c-0.5,0-0.9,0-1.4,0c-4.4,0-7.8,2.8-7.8,5.7c0,2.9,3.7,4.6,8.1,4.6
	c5,0,7.8-2.8,7.8-5.7C378.6,80.6,377.9,79.2,375.8,77.7 M387.3,74h-3.1v-3.1h-2.5V74h-3.1v2.5h3.1v3.1h2.5v-3.1h3.1V74z"/>
<path class="st0" d="M318.2,86.6h-5V70.7h5V86.6z M315.6,68.7L315.6,68.7c-1.8,0-3-1.2-3-2.8c0-1.6,1.2-2.8,3-2.8c1.8,0,3,1.2,3,2.8
	C318.6,67.5,317.5,68.7,315.6,68.7z M338.1,86.6h-5.6v-8.2c0-2.2-0.9-3.6-2.8-3.6c-1.5,0-2.3,1-2.7,2c-0.1,0.3-0.1,0.8-0.1,1.3v8.6
	h-5.6c0,0,0.1-14.6,0-15.9h5.6v2.5c0.3-1.1,2.1-2.7,5-2.7c3.5,0,6.3,2.3,6.3,7.2V86.6z"/>
</svg>
